HIERARCHY
ROOT Hips
{
	OFFSET 0.000000 100.481300 0.000000
	CHANNELS 6 Xposition Yposition Zposition Xrotation Yrotation Zrotation 
	JOINT Spine
	{
		OFFSET -0.279200 12.230698 -2.892100
		CHANNELS 3 Xrotation Yrotation Zrotation
		JOINT Spine1
		{
			OFFSET -0.232667 10.192268 -1.242267
			CHANNELS 3 Xrotation Yrotation Zrotation
			JOINT Spine1_split
			{
				OFFSET -0.232667 10.192268 -1.242267
				CHANNELS 3 Xrotation Yrotation Zrotation
				JOINT Spine2
				{
					OFFSET -0.232667 10.192268 -1.242267
					CHANNELS 3 Xrotation Yrotation Zrotation
					JOINT Neck
					{
						OFFSET -0.418800 17.814194 8.416900
						CHANNELS 3 Xrotation Yrotation Zrotation
						JOINT Head
						{
							OFFSET 0.000000 7.031097 3.806800
							CHANNELS 3 Xrotation Yrotation Zrotation
							JOINT HeadTop_End
							{
								OFFSET 0.000000 24.646606 12.978600
								CHANNELS 3 Xrotation Yrotation Zrotation
								End Site
								{
									OFFSET 0.000000 0.000000 0.000000
								}
							}
						}
					}
					JOINT LeftShoulder
					{
						OFFSET 8.476499 7.247704 -3.868750
						CHANNELS 3 Xrotation Yrotation Zrotation
						JOINT LeftShoulder_split
						{
							OFFSET 8.476499 7.247704 -3.868750
							CHANNELS 3 Xrotation Yrotation Zrotation
							JOINT LeftArm
							{
								OFFSET 9.308998 -2.777710 0.208600
								CHANNELS 3 Xrotation Yrotation Zrotation
								JOINT LeftForeArm
								{
									OFFSET 29.972298 0.000000 0.000000
									CHANNELS 3 Xrotation Yrotation Zrotation
									JOINT LeftHand
									{
										OFFSET 26.026505 0.000000 0.000000
										CHANNELS 3 Xrotation Yrotation Zrotation
										JOINT LeftHandThumb1
										{
											OFFSET 12.240501 -7.147949 9.207150
											CHANNELS 3 Xrotation Yrotation Zrotation
											JOINT LeftHandThumb2
											{
												OFFSET 4.138618 -2.389435 2.389433
												CHANNELS 3 Xrotation Yrotation Zrotation
												JOINT LeftHandThumb3
												{
													OFFSET 2.726913 -1.574387 1.574386
													CHANNELS 3 Xrotation Yrotation Zrotation
													JOINT LeftHandThumb4
													{
														OFFSET 3.941010 -2.275345 2.275342
														CHANNELS 3 Xrotation Yrotation Zrotation
														End Site
														{
															OFFSET 0.000000 0.000000 0.000000
														}
													}
												}
											}
										}
										JOINT LeftHandIndex1
										{
											OFFSET 24.424698 -1.985611 5.953459
											CHANNELS 3 Xrotation Yrotation Zrotation
											JOINT LeftHandIndex2
											{
												OFFSET 6.426697 0.000000 0.000000
												CHANNELS 3 Xrotation Yrotation Zrotation
												JOINT LeftHandIndex3
												{
													OFFSET 5.337898 0.000000 0.000000
													CHANNELS 3 Xrotation Yrotation Zrotation
													JOINT LeftHandIndex4
													{
														OFFSET 4.409401 0.000000 0.000000
														CHANNELS 3 Xrotation Yrotation Zrotation
														End Site
														{
															OFFSET 0.000000 0.000000 0.000000
														}
													}
												}
											}
										}
										JOINT LeftHandMiddle1
										{
											OFFSET 23.810104 0.000000 0.000000
											CHANNELS 3 Xrotation Yrotation Zrotation
											JOINT LeftHandMiddle2
											{
												OFFSET 7.176498 0.000000 0.000000
												CHANNELS 3 Xrotation Yrotation Zrotation
												JOINT LeftHandMiddle3
												{
													OFFSET 6.774902 0.000000 0.000000
													CHANNELS 3 Xrotation Yrotation Zrotation
													JOINT LeftHandMiddle4
													{
														OFFSET 5.403328 0.000000 0.000000
														CHANNELS 3 Xrotation Yrotation Zrotation
														End Site
														{
															OFFSET 0.000000 0.000000 0.000000
														}
													}
												}
											}
										}
										JOINT LeftHandRing1
										{
											OFFSET 22.908401 -0.839279 -6.020567
											CHANNELS 3 Xrotation Yrotation Zrotation
											JOINT LeftHandRing2
											{
												OFFSET 6.337502 0.000000 0.000000
												CHANNELS 3 Xrotation Yrotation Zrotation
												JOINT LeftHandRing3
												{
													OFFSET 5.779297 0.000000 0.000000
													CHANNELS 3 Xrotation Yrotation Zrotation
													JOINT LeftHandRing4
													{
														OFFSET 4.965698 0.000000 0.000000
														CHANNELS 3 Xrotation Yrotation Zrotation
														End Site
														{
															OFFSET 0.000000 0.000000 0.000000
														}
													}
												}
											}
										}
										JOINT LeftHandPinky1
										{
											OFFSET 20.037003 -1.530319 -10.950146
											CHANNELS 3 Xrotation Yrotation Zrotation
											JOINT LeftHandPinky2
											{
												OFFSET 5.254700 0.000000 0.000000
												CHANNELS 3 Xrotation Yrotation Zrotation
												JOINT LeftHandPinky3
												{
													OFFSET 4.810204 0.000000 0.000000
													CHANNELS 3 Xrotation Yrotation Zrotation
													JOINT LeftHandPinky4
													{
														OFFSET 3.647202 0.000000 0.000000
														CHANNELS 3 Xrotation Yrotation Zrotation
														End Site
														{
															OFFSET 0.000000 0.000000 0.000000
														}
													}
												}
											}
										}
									}
								}
							}
						}
					}
					JOINT RightShoulder
					{
						OFFSET -7.570500 7.247704 -3.868750
						CHANNELS 3 Xrotation Yrotation Zrotation
						JOINT RightShoulder_split
						{
							OFFSET -7.570500 7.247704 -3.868750
							CHANNELS 3 Xrotation Yrotation Zrotation
							JOINT RightArm
							{
								OFFSET -9.308998 -2.777710 0.208500
								CHANNELS 3 Xrotation Yrotation Zrotation
								JOINT RightForeArm
								{
									OFFSET -29.972300 0.000000 0.000000
									CHANNELS 3 Xrotation Yrotation Zrotation
									JOINT RightHand
									{
										OFFSET -26.026505 0.000000 0.000000
										CHANNELS 3 Xrotation Yrotation Zrotation
										JOINT RightHandThumb1
										{
											OFFSET -12.240601 -7.148026 9.207092
											CHANNELS 3 Xrotation Yrotation Zrotation
											JOINT RightHandThumb2
											{
												OFFSET -4.138618 -2.389435 2.389433
												CHANNELS 3 Xrotation Yrotation Zrotation
												JOINT RightHandThumb3
												{
													OFFSET -2.726974 -1.574417 1.574421
													CHANNELS 3 Xrotation Yrotation Zrotation
													JOINT RightHandThumb4
													{
														OFFSET -3.941010 -2.275345 2.275343
														CHANNELS 3 Xrotation Yrotation Zrotation
														End Site
														{
															OFFSET 0.000000 0.000000 0.000000
														}
													}
												}
											}
										}
										JOINT RightHandIndex1
										{
											OFFSET -24.424698 -1.985657 5.953444
											CHANNELS 3 Xrotation Yrotation Zrotation
											JOINT RightHandIndex2
											{
												OFFSET -6.426697 0.000000 0.000000
												CHANNELS 3 Xrotation Yrotation Zrotation
												JOINT RightHandIndex3
												{
													OFFSET -5.337898 0.000000 0.000000
													CHANNELS 3 Xrotation Yrotation Zrotation
													JOINT RightHandIndex4
													{
														OFFSET -4.409401 0.000000 0.000000
														CHANNELS 3 Xrotation Yrotation Zrotation
														End Site
														{
															OFFSET 0.000000 0.000000 0.000000
														}
													}
												}
											}
										}
										JOINT RightHandMiddle1
										{
											OFFSET -23.810097 0.000000 0.000000
											CHANNELS 3 Xrotation Yrotation Zrotation
											JOINT RightHandMiddle2
											{
												OFFSET -7.176498 0.000000 0.000000
												CHANNELS 3 Xrotation Yrotation Zrotation
												JOINT RightHandMiddle3
												{
													OFFSET -6.774902 0.000000 0.000000
													CHANNELS 3 Xrotation Yrotation Zrotation
													JOINT RightHandMiddle4
													{
														OFFSET -5.403328 0.000000 0.000000
														CHANNELS 3 Xrotation Yrotation Zrotation
														End Site
														{
															OFFSET 0.000000 0.000000 0.000000
														}
													}
												}
											}
										}
										JOINT RightHandRing1
										{
											OFFSET -22.908302 -0.839325 -6.020576
											CHANNELS 3 Xrotation Yrotation Zrotation
											JOINT RightHandRing2
											{
												OFFSET -6.337502 0.000000 0.000000
												CHANNELS 3 Xrotation Yrotation Zrotation
												JOINT RightHandRing3
												{
													OFFSET -5.779297 0.000000 0.000000
													CHANNELS 3 Xrotation Yrotation Zrotation
													JOINT RightHandRing4
													{
														OFFSET -4.965698 0.000000 0.000000
														CHANNELS 3 Xrotation Yrotation Zrotation
														End Site
														{
															OFFSET 0.000000 0.000000 0.000000
														}
													}
												}
											}
										}
										JOINT RightHandPinky1
										{
											OFFSET -20.037003 -1.530334 -10.950259
											CHANNELS 3 Xrotation Yrotation Zrotation
											JOINT RightHandPinky2
											{
												OFFSET -5.254700 0.000000 0.000000
												CHANNELS 3 Xrotation Yrotation Zrotation
												JOINT RightHandPinky3
												{
													OFFSET -4.810204 0.000000 0.000000
													CHANNELS 3 Xrotation Yrotation Zrotation
													JOINT RightHandPinky4
													{
														OFFSET -3.647202 0.000000 0.000000
														CHANNELS 3 Xrotation Yrotation Zrotation
														End Site
														{
															OFFSET 0.000000 0.000000 0.000000
														}
													}
												}
											}
										}
									}
								}
							}
						}
					}
				}
			}
		}
	}
	JOINT LeftUpLeg
	{
		OFFSET 15.427100 -6.655098 0.678600
		CHANNELS 3 Xrotation Yrotation Zrotation
		JOINT LeftLeg
		{
			OFFSET 4.081073 -39.591068 13.024000
			CHANNELS 3 Xrotation Yrotation Zrotation
			JOINT LeftFoot
			{
				OFFSET -4.081074 -37.707932 -15.979700
				CHANNELS 3 Xrotation Yrotation Zrotation
				JOINT LeftToeBase
				{
					OFFSET 5.346399 -15.068900 20.645000
					CHANNELS 3 Xrotation Yrotation Zrotation
					JOINT LeftToe_End
					{
						OFFSET 2.754700 0.931300 11.300900
						CHANNELS 3 Xrotation Yrotation Zrotation
						End Site
						{
							OFFSET 0.000000 0.000000 0.000000
						}
					}
				}
			}
		}
	}
	JOINT RightUpLeg
	{
		OFFSET -15.569500 -6.655098 0.678600
		CHANNELS 3 Xrotation Yrotation Zrotation
		JOINT RightLeg
		{
			OFFSET -4.081825 -39.591045 13.023800
			CHANNELS 3 Xrotation Yrotation Zrotation
			JOINT RightFoot
			{
				OFFSET 4.081824 -37.707954 -15.979600
				CHANNELS 3 Xrotation Yrotation Zrotation
				JOINT RightToeBase
				{
					OFFSET -5.346400 -15.068900 20.645000
					CHANNELS 3 Xrotation Yrotation Zrotation
					JOINT RightToe_End
					{
						OFFSET -2.754700 0.931300 11.300900
						CHANNELS 3 Xrotation Yrotation Zrotation
						End Site
						{
							OFFSET 0.000000 0.000000 0.000000
						}
					}
				}
			}
		}
	}
}
MOTION
Frames: 5
Frame Time: 0.016667
-7.556517 85.350914 42.416092 28.657428 2.895645 -16.997225 6.435278 15.317676 -9.416921 11.648213 11.205351 -7.545686 0.000000 0.000000 0.000000 11.698376 11.155148 -7.567835 -9.883401 -7.149089 7.463521 -30.256328 -33.917664 18.385671 -0.000000 0.000000 -0.000000 -0.266287 3.848961 2.890073 0.000000 0.000000 0.000000 28.180070 -44.869838 -18.300146 -0.000000 -24.379744 -0.000007 -6.282344 38.816996 -1.221418 -3.708775 -5.344629 -9.285593 10.685391 16.536448 0.020108 2.736435 5.880172 2.697144 -0.000000 0.000000 0.000001 0.013967 0.439249 -3.642309 0.025876 0.597745 -4.959526 0.006491 0.299155 -2.479709 0.000002 0.000001 -0.000000 0.013837 0.437309 -3.626328 0.026054 0.599688 -4.975526 0.006480 0.299146 -2.479709 0.000001 -0.000002 -0.000000 0.013967 0.439249 -3.642309 0.025874 0.597745 -4.959525 0.006487 0.299150 -2.479706 0.000000 0.000002 -0.000000 0.254030 4.486457 -3.142211 0.013190 -3.456762 -5.468397 0.006478 0.299150 -2.479710 0.000004 0.000001 -0.000000 4.952160 16.802291 -7.381382 0.000000 0.000000 0.000000 -6.598530 60.118205 21.651636 -0.000006 37.609112 0.000011 -29.432579 -31.794992 -16.154796 31.276468 -0.747319 -0.159475 -3.876751 -9.680804 -4.069543 -5.448488 -0.536439 -3.405185 -0.000005 -0.000003 -0.000001 0.578522 -2.781497 23.494925 0.464467 -2.503104 21.020976 0.117039 -1.272899 10.505441 -0.000000 -0.000002 -0.000004 0.578523 -2.781497 23.494925 0.464467 -2.503106 21.020976 0.117043 -1.272905 10.505437 -0.000001 -0.000000 0.000001 0.578525 -2.781503 23.494927 0.464463 -2.503099 21.020980 0.117043 -1.272902 10.505441 -0.000000 0.000002 0.000001 0.578522 -2.781497 23.494925 0.464465 -2.503109 21.020974 0.117043 -1.272898 10.505435 0.000002 -0.000002 -0.000000 -73.577311 -3.900064 15.925563 30.153837 11.416421 -4.590217 13.518131 -0.308659 6.440135 -0.206847 0.000002 -0.000001 0.000000 -0.000002 -0.000000 1.262328 -21.897711 -20.975376 71.714555 -0.839168 -1.528340 25.348876 2.570806 5.735315 -0.000003 0.000001 -0.000004 0.000001 0.000003 -0.000000 
-7.776457 84.974701 43.141075 27.914802 3.759459 -16.810323 6.422990 14.263984 -9.748942 11.676770 10.962415 -7.565058 0.000000 0.000000 0.000000 11.760145 10.875355 -7.586998 -9.995535 -7.064434 7.301288 -30.252571 -33.572989 18.432230 -0.000001 -0.000000 -0.000000 -0.255794 3.725913 3.215386 0.000000 0.000000 0.000000 28.574279 -46.646005 -14.108384 -0.000000 -23.223229 -0.000005 -8.175399 37.907413 -1.748945 -3.708774 -5.344629 -9.285594 10.685391 16.536448 0.020109 2.736440 5.880175 2.697145 0.000000 0.000000 -0.000001 0.013969 0.439250 -3.642311 0.025878 0.597745 -4.959527 0.006493 0.299156 -2.479709 -0.000000 0.000001 0.000000 0.013838 0.437312 -3.626329 0.026052 0.599689 -4.975529 0.006482 0.299147 -2.479708 0.000001 0.000001 -0.000001 0.013969 0.439250 -3.642310 0.025876 0.597746 -4.959526 0.006489 0.299152 -2.479706 -0.000000 -0.000001 0.000000 0.254033 4.486457 -3.142211 0.013189 -3.456763 -5.468396 0.006482 0.299148 -2.479710 0.000000 0.000001 0.000001 4.755315 16.291743 -6.875290 0.000000 0.000000 0.000000 -6.385740 57.667123 19.002413 -0.000007 35.965611 0.000019 -31.597227 -30.685397 -17.384534 31.221351 -0.794982 -0.187878 -3.869662 -9.704035 -4.071616 -5.444437 -0.547814 -3.407002 0.000001 -0.000000 0.000003 0.577763 -2.779702 23.478789 0.463241 -2.499872 20.992737 0.116706 -1.271209 10.491308 0.000002 0.000003 -0.000001 0.577763 -2.779702 23.478784 0.463240 -2.499873 20.992735 0.116709 -1.271224 10.491322 -0.000001 0.000002 0.000001 0.577757 -2.779698 23.478787 0.463239 -2.499878 20.992728 0.116710 -1.271210 10.491311 0.000003 -0.000000 0.000003 0.577763 -2.779702 23.478784 0.463238 -2.499876 20.992735 0.116709 -1.271209 10.491311 -0.000000 0.000001 0.000001 -73.200264 -3.336941 15.637508 31.446252 10.467788 -4.604035 12.579273 -0.234079 6.315250 -0.212785 -0.000007 0.000003 -0.000000 -0.000000 0.000000 -0.521196 -21.963303 -20.216267 70.349917 -0.479554 -1.872659 25.640534 2.340185 4.379755 0.000004 0.000002 0.000004 0.000002 0.000000 0.000001 
-7.980204 84.673668 43.893879 27.161513 4.598106 -16.655051 6.426435 13.201390 -10.088260 11.743708 10.656880 -7.606246 0.000000 0.000000 0.000000 11.859991 10.534733 -7.618944 -10.124066 -6.973860 7.156028 -30.258780 -33.172473 18.492998 -0.000003 -0.000000 -0.000000 -0.246486 3.605305 3.561311 0.000000 0.000000 0.000000 28.114715 -48.438882 -10.572336 0.000010 -21.961920 -0.000003 -10.198613 36.602649 -1.666785 -3.708774 -5.344631 -9.285591 10.685392 16.536443 0.020110 2.736434 5.880171 2.697144 0.000001 -0.000001 -0.000000 0.013970 0.439248 -3.642309 0.025877 0.597747 -4.959527 0.006491 0.299157 -2.479710 -0.000000 -0.000001 0.000000 0.013836 0.437305 -3.626327 0.026055 0.599685 -4.975525 0.006481 0.299146 -2.479708 -0.000001 0.000001 -0.000001 0.013970 0.439248 -3.642308 0.025876 0.597745 -4.959525 0.006488 0.299156 -2.479707 0.000001 0.000001 0.000000 0.254032 4.486453 -3.142209 0.013188 -3.456765 -5.468395 0.006480 0.299150 -2.479709 -0.000000 -0.000001 0.000001 4.570564 15.669525 -6.602634 0.000000 0.000000 0.000000 -6.422769 55.485865 16.577460 -0.000009 34.357583 0.000023 -33.438086 -29.057428 -18.368950 31.163930 -0.844501 -0.217489 -3.862221 -9.728359 -4.073787 -5.440182 -0.559765 -3.408881 0.000002 -0.000003 -0.000002 0.576939 -2.777846 23.461978 0.461909 -2.496420 20.962141 0.116377 -1.269381 10.476039 0.000002 0.000002 -0.000000 0.576940 -2.777845 23.461980 0.461909 -2.496421 20.962137 0.116376 -1.269379 10.476044 -0.000000 -0.000002 0.000002 0.576943 -2.777845 23.461978 0.461909 -2.496423 20.962131 0.116380 -1.269381 10.476041 -0.000000 -0.000002 0.000001 0.576939 -2.777846 23.461980 0.461908 -2.496424 20.962137 0.116375 -1.269381 10.476039 0.000001 -0.000001 0.000002 -72.743618 -2.658944 15.382780 32.593342 9.416614 -4.539320 11.662849 -0.158159 6.228215 -0.218900 -0.000007 -0.000000 -0.000000 -0.000002 -0.000000 -2.257943 -21.929745 -19.491854 68.923698 -0.207053 -2.337629 25.877492 2.206674 3.687525 0.000003 0.000004 -0.000001 0.000002 0.000002 -0.000002 
-8.144878 84.439278 44.684177 26.389727 5.421825 -16.513021 6.447539 12.110566 -10.429235 11.857636 10.258342 -7.663913 0.000000 0.000000 0.000000 12.006343 10.104666 -7.655101 -10.259063 -6.869444 7.028380 -30.230711 -32.681526 18.611086 0.000001 -0.000001 0.000000 -0.235982 3.479648 3.929618 0.000000 0.000000 0.000000 26.629931 -50.227661 -7.790024 -0.000006 -20.582007 0.000004 -12.116076 35.063855 -1.214148 -3.708774 -5.344634 -9.285592 10.685391 16.536450 0.020109 2.736439 5.880175 2.697144 -0.000001 0.000002 0.000001 0.013968 0.439247 -3.642309 0.025876 0.597745 -4.959526 0.006493 0.299151 -2.479706 -0.000001 0.000000 0.000000 0.013835 0.437307 -3.626327 0.026053 0.599686 -4.975525 0.006482 0.299148 -2.479709 0.000000 -0.000004 0.000001 0.013968 0.439247 -3.642308 0.025875 0.597745 -4.959524 0.006486 0.299151 -2.479706 0.000002 0.000003 0.000000 0.254032 4.486456 -3.142208 0.013188 -3.456762 -5.468395 0.006482 0.299145 -2.479707 -0.000001 0.000004 -0.000000 4.407067 14.991005 -6.564029 0.000000 0.000000 0.000000 -6.689406 53.585990 14.333861 0.000001 32.841465 -0.000018 -34.852003 -27.174374 -18.930491 31.104425 -0.895745 -0.248193 -3.854487 -9.753759 -4.076047 -5.435735 -0.572157 -3.410891 0.000001 0.000000 -0.000003 0.576095 -2.775881 23.444544 0.460478 -2.492704 20.929337 0.116010 -1.267408 10.459670 -0.000002 0.000003 -0.000002 0.576096 -2.775880 23.444541 0.460478 -2.492705 20.929335 0.116008 -1.267409 10.459677 -0.000001 -0.000000 -0.000001 0.576095 -2.775878 23.444544 0.460480 -2.492706 20.929335 0.116007 -1.267404 10.459665 0.000001 0.000002 0.000000 0.576095 -2.775881 23.444541 0.460478 -2.492707 20.929335 0.116011 -1.267404 10.459666 -0.000001 0.000004 -0.000000 -72.188597 -1.896404 15.127120 33.637831 8.316041 -4.389031 10.735476 -0.085597 6.164003 -0.224743 0.000005 0.000001 -0.000000 -0.000002 0.000000 -3.960916 -21.797598 -18.819563 67.416433 -0.009982 -2.885184 26.038715 2.128018 3.354098 0.000002 0.000001 -0.000000 0.000002 0.000001 -0.000001 
-8.238445 84.269966 45.525791 25.587386 6.235911 -16.360513 6.485704 10.978383 -10.763066 12.021810 9.741556 -7.730865 0.000000 0.000000 0.000000 12.202110 9.561374 -7.685882 -10.392268 -6.743325 6.915841 -30.125280 -32.065139 18.818932 0.000000 -0.000000 -0.000000 -0.221328 3.342414 4.318526 0.000000 0.000000 0.000000 24.076422 -51.955958 -5.803364 0.000012 -19.112211 -0.000007 -13.648104 33.544394 -0.676155 -3.708775 -5.344630 -9.285589 10.685390 16.536446 0.020111 2.736439 5.880172 2.697147 0.000000 -0.000001 -0.000003 0.013968 0.439248 -3.642310 0.025876 0.597747 -4.959524 0.006492 0.299151 -2.479708 -0.000000 0.000001 0.000001 0.013835 0.437308 -3.626326 0.026054 0.599687 -4.975524 0.006480 0.299147 -2.479710 0.000001 0.000001 0.000000 0.013969 0.439248 -3.642309 0.025877 0.597746 -4.959522 0.006486 0.299151 -2.479709 -0.000001 -0.000000 -0.000001 0.254034 4.486456 -3.142208 0.013189 -3.456764 -5.468393 0.006481 0.299150 -2.479712 -0.000000 -0.000002 -0.000001 4.269300 14.317939 -6.742141 0.000000 0.000000 0.000000 -7.185951 51.966671 12.264341 -0.000011 31.452796 0.000028 -35.753455 -25.271982 -18.973658 31.042971 -0.948562 -0.279895 -3.846440 -9.780088 -4.078417 -5.431126 -0.585092 -3.412919 -0.000003 0.000001 -0.000002 0.575228 -2.773888 23.426557 0.458957 -2.488721 20.894496 0.115621 -1.265352 10.442265 0.000001 0.000001 -0.000001 0.575227 -2.773887 23.426553 0.458957 -2.488722 20.894495 0.115615 -1.265352 10.442263 0.000001 -0.000001 0.000002 0.575221 -2.773881 23.426548 0.458957 -2.488730 20.894503 0.115621 -1.265347 10.442261 -0.000001 -0.000003 0.000000 0.575228 -2.773888 23.426553 0.458958 -2.488728 20.894495 0.115621 -1.265346 10.442264 -0.000000 0.000002 0.000000 -71.487772 -1.092462 14.842409 34.612844 7.242440 -4.168117 9.754595 -0.019568 6.111254 -0.229835 -0.000007 0.000001 -0.000000 0.000000 0.000000 -5.647638 -21.591135 -18.217726 65.807199 0.160691 -3.459997 26.089962 2.044658 2.982462 -0.000004 0.000018 -0.000012 0.000001 0.000001 0.000000 
